<?xml version="1.0" encoding="utf-8"?>
<svg viewBox="0 0 1000 1000" xmlns="http://www.w3.org/2000/svg">
  <path d="M 420.869 1000 C 359.591 1000 309.758 950.167 309.758 888.889 C 309.758 827.611 359.591 777.778 420.869 777.778 C 482.147 777.778 531.98 827.611 531.98 888.889 C 531.98 950.167 482.147 1000 420.869 1000 Z M 420.869 833.334 C 390.258 833.334 365.314 858.278 365.314 888.889 C 365.314 919.499 390.258 944.445 420.869 944.445 C 451.48 944.445 476.425 919.499 476.425 888.889 C 476.425 858.278 451.48 833.334 420.869 833.334 Z M 809.758 1000 C 748.48 1000 698.646 950.167 698.646 888.889 C 698.646 827.611 748.48 777.778 809.758 777.778 C 871.036 777.778 920.869 827.611 920.869 888.889 C 920.869 950.167 871.036 1000 809.758 1000 Z M 809.758 833.334 C 779.147 833.334 754.202 858.278 754.202 888.889 C 754.202 919.499 779.147 944.445 809.758 944.445 C 840.368 944.445 865.314 919.499 865.314 888.889 C 865.314 858.278 840.368 833.334 809.758 833.334 Z M 950.813 137.056 C 936.87 120.555 915.813 111.111 893.091 111.111 L 212.924 111.111 L 207.424 78 C 200.146 34.278 159.701 0 115.313 0 L 59.757 0 C 44.424 0 31.979 12.445 31.979 27.778 C 31.979 43.111 44.424 55.555 59.757 55.555 L 115.313 55.555 C 132.367 55.555 149.812 70.333 152.59 87.167 L 245.423 644.222 C 252.701 687.943 293.146 722.222 337.534 722.222 L 893.09 722.222 C 908.423 722.222 920.868 709.778 920.868 694.445 C 920.868 679.111 908.423 666.666 893.09 666.666 L 337.534 666.666 C 320.48 666.666 303.035 651.889 300.257 635.056 L 286.535 552.833 L 840.146 504.667 C 883.201 500.945 922.536 464.612 929.646 421.944 L 966.923 198.222 C 970.645 175.778 964.812 153.445 950.868 137.001 Z M 912.091 189.111 L 874.813 412.833 C 871.869 430.388 853.091 447.778 835.314 449.333 L 277.368 497.833 L 222.146 166.612 L 893.035 166.612 C 899.534 166.612 904.979 168.833 908.368 172.89 C 911.757 176.945 913.09 182.667 912.035 189.056 Z"/>
</svg>