<?xml version="1.0" encoding="utf-8"?>
<svg viewBox="0 0 1000 1000" xmlns="http://www.w3.org/2000/svg">
  <path d="M 973.684 210.526 L 815.737 210.526 C 832.316 188.526 842.105 161.158 842.105 131.579 C 842.105 59.053 783.053 0 710.526 0 C 637.368 0 576 57.947 545.947 92.526 C 527.737 113.421 512.053 135.842 500 157.526 C 487.947 135.842 472.263 113.474 454.053 92.526 C 424 58 362.632 0 289.474 0 C 216.947 0 157.895 59.053 157.895 131.579 C 157.895 161.158 167.737 188.526 184.263 210.526 L 26.316 210.526 C 11.789 210.526 0 222.316 0 236.842 L 0 394.737 C 0 409.263 11.789 421.053 26.316 421.053 L 52.632 421.053 L 52.632 921.053 C 52.632 964.579 88.053 1000 131.579 1000 L 868.421 1000 C 911.947 1000 947.368 964.579 947.368 921.053 L 947.368 421.053 L 973.684 421.053 C 988.211 421.053 1000 409.263 1000 394.737 L 1000 236.842 C 1000 222.316 988.211 210.526 973.684 210.526 Z M 585.632 127.053 C 626.789 79.737 672.316 52.632 710.526 52.632 C 754.053 52.632 789.474 88.053 789.474 131.579 C 789.474 175.105 754.053 210.526 710.526 210.526 L 532.737 210.526 C 541.842 187.263 560.263 156.211 585.632 127.053 Z M 578.947 947.368 L 421.053 947.368 L 421.053 263.158 L 578.947 263.158 L 578.947 947.368 Z M 210.526 131.579 C 210.526 88.053 245.947 52.632 289.474 52.632 C 327.684 52.632 373.211 79.737 414.368 127.053 C 439.737 156.211 458.158 187.263 467.263 210.526 L 289.474 210.526 C 245.947 210.526 210.526 175.105 210.526 131.579 Z M 52.632 263.158 L 368.421 263.158 L 368.421 368.421 L 52.632 368.421 L 52.632 263.158 Z M 105.263 921.053 L 105.263 421.053 L 368.421 421.053 L 368.421 947.368 L 131.579 947.368 C 117.053 947.368 105.263 935.579 105.263 921.053 Z M 894.737 921.053 C 894.737 935.579 882.947 947.368 868.421 947.368 L 631.579 947.368 L 631.579 421.053 L 894.737 421.053 L 894.737 921.053 Z M 947.368 368.421 L 631.579 368.421 L 631.579 263.158 L 947.368 263.158 L 947.368 368.421 Z"/>
</svg>