<?xml version="1.0" encoding="utf-8"?>
<svg viewBox="0 0 1000 1000" xmlns="http://www.w3.org/2000/svg">
  <path d="M 500 947.369 C 495.579 947.369 491.211 946.264 487.211 944.053 C 482.263 941.316 364.789 875.579 245.526 767.895 C 174.947 704.211 118.632 639.053 78 574.211 C 26.211 491.527 0 409 0 328.948 C 0 176.579 123.947 52.632 276.316 52.632 C 327.895 52.632 382.684 71.948 430.579 107.053 C 458.579 127.579 482.421 152.316 500 178.579 C 517.579 152.316 541.421 127.579 569.421 107.053 C 617.316 71.948 672.105 52.632 723.684 52.632 C 876.053 52.632 1000 176.579 1000 328.948 C 1000 409 973.737 491.527 922 574.211 C 881.421 639.053 825.053 704.211 754.526 767.895 C 635.263 875.579 517.789 941.316 512.842 944.053 C 508.842 946.264 504.474 947.369 500.053 947.369 Z M 276.316 105.264 C 153 105.264 52.632 205.632 52.632 328.948 C 52.632 488.948 176.316 634.316 280.053 728.158 C 372.684 811.948 466.579 870.685 500 890.632 C 533.421 870.685 627.316 811.948 719.947 728.158 C 823.684 634.369 947.368 488.948 947.368 328.948 C 947.368 205.632 847 105.264 723.684 105.264 C 634.053 105.264 547 179 524.947 245.158 C 521.368 255.895 511.316 263.158 500 263.158 C 488.684 263.158 478.632 255.895 475.053 245.158 C 453 179 365.947 105.264 276.316 105.264 Z"/>
</svg>