<?xml version="1.0" encoding="utf-8"?>
<!DOCTYPE svg PUBLIC "-//W3C//DTD SVG 1.1//EN" "http://www.w3.org/Graphics/SVG/1.1/DTD/svg11.dtd">
<svg version="1.1" xmlns="http://www.w3.org/2000/svg" xmlns:xlink="http://www.w3.org/1999/xlink" x="0px" y="0px"
	 width="612px" height="792px" viewBox="0 0 612 792" enable-background="new 0 0 612 792" xml:space="preserve">
<g transform="matrix(1, 0, 0, 0.996678, -12, -8.338889)">
	<g>
		<g>
			<path fill="#FF9900" d="M391.44,488.103c-35.496,26.316-86.904,40.392-131.581,40.392c-62.424,0-118.116-23.256-160.344-61.2
				c-3.06-3.06-0.612-7.344,3.672-4.896c45.9,26.316,102.204,42.841,160.956,42.841c39.168,0,82.62-7.956,122.4-25.092
				C392.664,477.698,397.56,483.818,391.44,488.103z"/>
			<path fill="#FF9900" d="M406.74,471.578c-4.284-6.12-29.988-3.06-41.616-1.224c-3.672,0.612-4.284-2.448-0.612-4.896
				c20.196-14.076,53.856-10.404,57.528-5.508s-1.224,38.556-20.196,54.468c-3.06,2.448-5.508,1.224-4.284-1.836
				C401.232,500.954,411.024,477.087,406.74,471.578z"/>
		</g>
		<path d="M365.736,363.867V349.79c0-1.836,1.836-3.672,3.672-3.672h62.424c1.836,0,3.672,1.224,3.672,3.672v11.628
			c0,1.836-1.836,4.896-4.896,8.568l-32.437,45.9c12.24,0,24.48,1.224,35.496,7.344c2.448,1.225,3.06,3.672,3.06,5.509v14.687
			c0,1.836-2.447,4.285-4.283,3.06c-18.973-9.791-44.677-11.015-65.484,0c-2.448,1.225-4.284-1.224-4.284-3.06V429.35
			c0-2.448,0-6.12,2.448-9.791l37.332-53.856H370.02C367.572,367.538,365.736,366.315,365.736,363.867z"/>
		<path d="M138.684,450.771h-18.972c-1.836,0-3.06-1.225-3.672-3.06v-97.309c0-1.836,1.836-3.672,3.672-3.672h17.748
			c1.836,0,3.06,1.224,3.672,3.06v12.852h0.612c4.896-12.24,13.464-17.748,25.092-17.748s18.972,5.508,24.48,17.748
			c4.896-12.24,15.3-17.748,26.316-17.748c7.956,0,16.524,3.06,22.032,10.404c6.12,7.956,4.896,20.196,4.896,30.6v61.2
			c0,1.836-1.836,3.672-3.672,3.672h-18.972c-1.836,0-3.672-1.836-3.672-3.672v-51.408c0-4.284,0.612-14.076-0.612-18.36
			c-1.224-6.732-5.508-8.568-11.016-8.568c-4.896,0-9.18,3.06-11.016,7.956c-1.836,4.896-1.836,12.852-1.836,18.36v51.408
			c0,1.836-1.836,3.672-3.672,3.672H171.12c-1.836,0-3.672-1.836-3.672-3.672v-51.408c0-11.016,1.836-26.928-11.628-26.928
			c-13.464,0-12.852,15.3-12.852,26.928v51.408C142.356,449.546,140.52,450.771,138.684,450.771z"/>
		<path d="M488.748,344.895c28.152,0,43.452,23.868,43.452,55.08c0,29.375-16.524,53.244-43.452,53.244
			c-27.54,0-42.84-23.868-42.84-54.468C445.908,368.763,461.208,344.895,488.748,344.895z M488.748,365.091
			c-14.076,0-14.688,18.972-14.688,30.6c0,11.628,0,37.332,14.688,37.332c14.688,0,15.3-20.196,15.3-33.048
			c0-7.956-0.612-17.748-3.06-25.704C499.152,367.538,494.868,365.091,488.748,365.091z"/>
		<path d="M568.308,450.771h-18.972c-1.836,0-3.672-1.836-3.672-3.672V349.79c0-1.836,1.836-3.06,3.672-3.06h17.748
			c1.836,0,3.061,1.224,3.672,2.448v14.688h0.612c5.508-13.464,12.852-19.584,25.704-19.584c8.567,0,16.523,3.06,22.031,11.628
			C624,363.867,624,376.719,624,385.899v61.2c0,1.836-1.836,3.06-3.672,3.06h-18.972c-1.837,0-3.061-1.224-3.673-3.06v-52.632
			c0-10.404,1.225-26.316-11.628-26.316c-4.896,0-8.567,3.06-11.016,7.956c-2.448,6.12-3.06,11.628-3.06,18.36v52.632
			C571.98,449.546,570.756,450.771,568.308,450.771z"/>
		<path d="M316.164,404.259c0,7.344,0,13.464-3.672,20.197c-3.06,5.508-7.956,8.568-12.852,8.568
			c-7.344,0-11.628-5.508-11.628-13.464c0-15.912,14.688-18.972,28.152-18.972V404.259L316.164,404.259z M335.136,450.771
			c-1.224,1.224-3.06,1.224-4.284,0.611c-6.119-5.508-7.344-7.956-11.016-12.852c-10.404,10.405-17.748,13.465-31.212,13.465
			c-15.912,0-28.152-9.792-28.152-29.376c0-15.3,8.568-25.705,20.196-31.212c10.404-4.284,24.48-5.508,35.496-6.732v-2.448
			c0-4.284,0.612-9.792-2.448-13.464c-2.448-3.672-6.732-4.896-10.404-4.896c-7.344,0-13.464,3.672-15.3,11.628
			c-0.612,1.836-1.836,3.672-3.06,3.672l-18.36-1.836c-1.836-0.612-3.06-1.836-3.06-3.672c4.284-22.032,24.48-28.764,42.228-28.764
			c9.18,0,21.419,2.448,28.764,9.18c9.18,8.568,8.567,20.196,8.567,32.436v29.376c0,9.18,3.672,12.852,7.344,17.748
			c1.225,1.835,1.225,3.671,0,4.895C346.152,441.591,338.808,447.099,335.136,450.771L335.136,450.771z"/>
		<path d="M67.692,404.259c0,7.344,0,13.464-3.672,20.197c-3.06,5.508-7.344,8.568-12.852,8.568
			c-7.344,0-11.628-5.508-11.628-13.464c0-15.912,14.688-18.972,28.152-18.972V404.259z M86.664,450.771
			c-1.224,1.224-3.06,1.224-4.284,0.611c-6.12-5.508-7.344-7.956-11.016-12.852c-10.404,10.405-17.748,13.465-31.212,13.465
			C24.24,451.995,12,442.202,12,422.619c0-15.3,8.568-25.705,20.196-31.212c10.404-4.284,24.48-5.508,35.496-6.732v-2.448
			c0-4.284,0.612-9.792-2.448-13.464c-2.448-3.672-6.732-4.896-10.404-4.896c-7.344,0-13.464,3.672-15.3,11.628
			c-0.612,1.836-1.836,3.672-3.06,3.672l-18.36-1.836c-1.836-0.612-3.06-1.836-3.06-3.672c4.284-22.032,24.48-28.764,42.228-28.764
			c9.18,0,21.42,2.448,28.764,9.18c9.18,8.568,8.568,20.196,8.568,32.436v29.376c0,9.18,3.672,12.852,7.344,17.748
			c1.224,1.835,1.224,3.671,0,4.895C97.68,441.591,90.948,447.099,86.664,450.771L86.664,450.771z"/>
	</g>
</g>
</svg>
