<?xml version="1.0" encoding="utf-8"?>
<!-- Generator: Adobe Illustrator 16.0.0, SVG Export Plug-In . SVG Version: 6.00 Build 0)  -->
<!DOCTYPE svg PUBLIC "-//W3C//DTD SVG 1.1//EN" "http://www.w3.org/Graphics/SVG/1.1/DTD/svg11.dtd">
<svg version="1.1" id="Layer_1" xmlns="http://www.w3.org/2000/svg" xmlns:xlink="http://www.w3.org/1999/xlink" x="0px" y="0px"
	 width="612px" height="373.58px" viewBox="0 209.21 612 373.58" enable-background="new 0 209.21 612 373.58" xml:space="preserve"
	>
<path d="M162.015,314.165h-20.349c-5.093,0.012-5.572,0.515-5.572,5.67v150.846c0,4.21,0.724,4.909,4.872,4.934
	c6.652,0.037,13.316,0,19.993,0c6.271,0,6.848-0.553,6.848-6.738V340.833v-21.048C167.795,315.011,166.911,314.177,162.015,314.165z
	 M28.706,314.177c-6.202-0.051-12.404-0.047-18.605,0.012C3.596,314.287,0,317.994,0,324.522v145.63c0,4.284,0.577,4.86,4.873,4.86
	c6.308,0.049,12.628,0.049,18.937,0c6.627-0.049,9.953-3.351,9.953-9.94v-145.63C33.775,315.183,32.879,314.213,28.706,314.177z
	 M119.342,471.344c-1.804-17.968-8.346-33.91-20.925-47.079c-13.549-14.163-30.216-21.956-48.392-23.761
	c-5.867-0.11-5.916-0.11-5.756,4.32c0.061,1.632,0.38,3.24,0.625,4.86c3.252,21.539,13.783,38.696,31.308,51.521
	c11.488,8.443,24.485,12.825,38.635,14.15C119.047,475.762,119.759,475.467,119.342,471.344z M114.936,314.569
	c-1.607,0.258-3.277,0.16-4.872,0.405c-18.434,2.933-34.082,11.094-46.527,25.073c-11.401,12.789-17.734,27.872-19.231,44.907
	c-0.38,4.442-0.135,4.455,4.541,5.056c6.418-1.583,13.095-2.553,19.231-4.885c30.646-11.634,47.41-34.217,51.276-66.617
	C119.845,314.397,119.158,313.931,114.936,314.569L114.936,314.569z M279.368,390.637c-0.466-17.882-10.641-29.848-27.847-34.082
	c-19.084-4.737-37.997-1.963-56.811,2.05c-2.234,0.466-3.154,2.074-3.105,4.418c0.098,4.185,0.024,8.407,0.024,12.616
	c0,6.001,0.786,6.296,6.726,5.94c12.112-0.744,24.242-1.145,36.377-1.203c7.241,0,11.635,4.087,12.837,10.641
	c0.38,2.038,0.233,4.197,0.233,6.296c0.025,8.137,0.012,8.21-8.014,8.112c-11.217-0.11-22.398,0.258-33.259,3.547
	c-11.218,3.362-19.281,10.002-21.711,21.956c-1.559,7.696-1.396,15.644,0.479,23.27c2.602,10.738,9.106,18.054,19.735,21.22
	c11.807,3.473,23.503,2.97,34.732-2.467c3.215-1.559,6.271-3.474,9.867-5.474c0.147,1.116,0.258,1.681,0.283,2.258
	c0.27,5.277,0.933,5.94,6.284,5.94c6.308,0.012,12.616,0.024,18.937,0c3.669-0.024,4.97-1.19,4.958-4.762
	C279.932,444.146,280.067,417.367,279.368,390.637L279.368,390.637z M244.697,450.921c-6.873,2.663-13.819,4.1-21.195,2.823
	c-4.59-0.785-7.953-3.51-8.345-8.174c-0.346-4.284-0.098-8.597,0.736-12.813c0.896-4.442,4.16-7.694,8.615-8.259
	c7.266-0.896,14.617-1.093,21.932-1.351c0.651-0.024,1.89,1.559,1.952,2.467c0.233,3.608,0.098,7.241,0.098,10.861
	c0,2.823-0.221,5.646,0.062,8.432C248.919,448.147,247.655,449.792,244.697,450.921L244.697,450.921z M596.364,347.338v0.92h2.577
	v7.523h1.104v-7.523h2.577v-0.92H596.364z M611.473,347.338h-1.461l-1.51,4.087c-0.355,1.068-0.675,1.988-0.884,2.847h-0.012
	c-0.258-0.883-0.516-1.816-0.859-2.847l-1.436-4.087h-1.387l-0.577,8.444h1.031l0.245-3.633c0.073-1.243,0.126-2.486,0.159-3.731
	h0.025c0.257,0.994,0.576,2.086,0.969,3.277l1.375,4.038h0.822l1.484-4.111c0.43-1.166,0.762-2.221,1.056-3.203h0.024
	c0,1.031,0.074,2.479,0.16,3.645l0.196,3.719H612L611.473,347.338L611.473,347.338z M480.054,398.614
	c-0.08-6.429-0.82-12.832-2.209-19.109c-2.761-12.948-10.187-22.067-23.821-24.448c-14.887-2.639-29.074-0.528-41.851,8.137
	c-1.252,0.835-2.504,1.596-4.651,2.958c-0.099-2.516-0.245-4.075-0.271-5.658c-0.098-4.124-0.81-4.897-4.958-4.921
	c-6.591-0.037-13.119-0.049-19.661,0.012c-3.854,0.024-5.007,1.227-5.007,5.069v109.449c0,4.283,1.153,5.462,5.351,5.486
	c7.253,0.024,14.507-0.074,21.76,0.062c3.24,0.036,4.7-1.24,4.64-4.565c-0.123-7.241-0.037-14.482-0.037-21.748
	c0-19.293-0.037-38.586,0.073-57.879c0-1.595,0.418-3.989,1.485-4.651c8.051-4.958,16.691-8.002,26.301-6.406
	c5.29,0.871,8.996,3.976,9.99,9.438c0.699,3.78,1.228,7.622,1.228,11.451c0.146,22.938,0.073,45.852,0.073,68.777
	c0,4.994,0.577,5.547,5.694,5.547c6.554,0.037,13.12,0.037,19.661,0c5.658,0,6.309-0.626,6.309-6.161
	C480.152,445.865,480.312,422.252,480.054,398.614L480.054,398.614z M591.75,397.252c0.023-3.63-0.224-7.256-0.736-10.85
	c-2.185-13.991-9.684-23.981-23.27-28.51c-5.738-1.952-11.702-3.161-17.747-3.596c-14.285-0.896-28.399,0.81-42.378,3.964
	c-3.068,0.712-4.357,2.381-4.345,5.375v11.574c0,6.21,0.859,6.688,6.897,6.369c12.027-0.675,24.043-1.215,36.058-1.289
	c7.757-0.024,12.102,3.964,13.414,11.635c0.589,3.437,0.271,7.008,0.454,10.481c0.123,2.308-0.97,3.068-3.179,2.995
	c-5.031-0.074-10.125-0.504-15.083,0.098c-8.529,1.007-17.182,1.988-25.43,4.296c-10.935,3.08-18.028,10.727-19.82,22.238
	c-0.725,4.774-0.602,9.732-0.368,14.593c0.933,19.734,15.991,32.694,35.689,31.1c9.953-0.773,19.33-3.143,27.479-9.218
	c0.553-0.393,1.252-0.613,2.013-0.957c0.356,0.54,0.577,0.675,0.602,0.896c0.119,0.582,0.188,1.173,0.209,1.767
	c0.27,5.094,0.602,5.4,5.829,5.4c6.088,0.037,12.15,0.037,18.238,0c4.896,0,5.498-0.553,5.498-5.376
	C591.786,445.914,591.811,421.577,591.75,397.252z M560.834,446.024c0.086,2.233-0.871,3.412-2.822,4.283
	c-7.18,3.179-14.556,4.811-22.447,3.522c-5.683-0.97-9.009-4.823-8.91-11.966c0.184-12.139,2.859-17.624,17.624-18.741
	c4.406-0.344,8.886,0.013,13.315-0.086c2.492-0.11,3.29,1.056,3.24,3.363c-0.11,3.387-0.049,6.799-0.049,10.161
	C560.81,439.704,560.688,442.846,560.834,446.024z M364.406,358.494c0.013-3.13-1.387-4.467-4.491-4.345
	c-8.931,0.326-17.558,3.323-24.767,8.604c-1.007,0.736-2.013,1.411-3.522,2.491c-0.123-1.682-0.258-2.675-0.258-3.682
	c-0.099-5.032-0.981-5.965-5.903-5.965c-6.345-0.024-12.629-0.012-18.949-0.012c-5.781,0.012-6.738,0.945-6.738,6.701v106.995
	c0,5.18,1.141,6.333,6.063,6.333c6.652,0.037,13.34,0.037,20.005,0c5.375,0,6.234-0.81,6.234-6.357
	c0.012-25.933,0.036-51.902-0.049-77.896c0-2.565,0.748-4.025,3.104-5.142c7.806-3.67,15.808-6.419,24.583-6.063
	c3.215,0.135,4.773-1.08,4.7-4.479C364.298,369.949,364.294,364.221,364.406,358.494L364.406,358.494z"/>
</svg>
