<?xml version="1.0" encoding="utf-8"?>
<!-- Generator: Adobe Illustrator 16.0.0, SVG Export Plug-In . SVG Version: 6.00 Build 0)  -->
<!DOCTYPE svg PUBLIC "-//W3C//DTD SVG 1.1//EN" "http://www.w3.org/Graphics/SVG/1.1/DTD/svg11.dtd">
<svg version="1.1" id="Layer_1" xmlns="http://www.w3.org/2000/svg" xmlns:xlink="http://www.w3.org/1999/xlink" x="0px" y="0px"
	 width="100px" height="60px" viewBox="0 0 100 60" enable-background="new 0 0 100 60" xml:space="preserve">
<path id="Rectangle-Copy" fill="#231F20" d="M4,0h92c2.209,0,4,1.791,4,4v52c0,2.209-1.791,4-4,4H4c-2.209,0-4-1.791-4-4V4
	C0,1.791,1.791,0,4,0z"/>
<path fill="#FFFFFF" d="M28.73,18.288h-2.943c-0.737,0.001-0.806,0.075-0.806,0.82v21.82c0,0.608,0.105,0.71,0.705,0.714
	c0.962,0.005,1.927,0,2.892,0c0.907,0,0.99-0.081,0.99-0.975V22.146v-3.045C29.567,18.41,29.439,18.289,28.73,18.288z M9.448,18.289
	c-0.897-0.007-1.794-0.007-2.691,0.002c-0.94,0.015-1.461,0.55-1.461,1.495v21.065c0,0.62,0.083,0.702,0.705,0.702
	c0.913,0.007,1.826,0.007,2.739,0c0.958-0.008,1.439-0.484,1.439-1.438V19.051C10.181,18.435,10.051,18.294,9.448,18.289z
	 M22.558,41.023c-0.261-2.6-1.208-4.904-3.027-6.81c-1.96-2.049-4.371-3.177-7-3.438c-0.849-0.016-0.855-0.016-0.833,0.625
	c0.01,0.235,0.056,0.469,0.091,0.702c0.47,3.116,1.994,5.599,4.529,7.453c1.661,1.222,3.542,1.855,5.588,2.047
	C22.516,41.662,22.619,41.62,22.558,41.023z M21.921,18.346c-0.232,0.037-0.474,0.023-0.705,0.058
	c-2.667,0.424-4.93,1.605-6.73,3.627c-1.649,1.851-2.565,4.032-2.781,6.496c-0.055,0.643-0.02,0.645,0.656,0.732
	c0.929-0.23,1.895-0.371,2.782-0.708c4.433-1.683,6.858-4.949,7.417-9.636C22.631,18.321,22.531,18.254,21.921,18.346L21.921,18.346
	z M45.706,29.349c-0.068-2.586-1.54-4.317-4.029-4.929c-2.759-0.686-5.496-0.284-8.217,0.296c-0.323,0.068-0.457,0.3-0.449,0.64
	c0.014,0.605,0.003,1.216,0.003,1.825c0,0.869,0.113,0.911,0.973,0.86c1.752-0.108,3.507-0.167,5.262-0.174
	c1.047,0,1.683,0.591,1.857,1.539c0.055,0.295,0.034,0.607,0.034,0.91c0.004,1.177,0.001,1.188-1.159,1.174
	c-1.623-0.017-3.24,0.037-4.811,0.514c-1.623,0.485-2.789,1.446-3.14,3.175c-0.226,1.114-0.202,2.264,0.069,3.366
	c0.376,1.553,1.317,2.611,2.854,3.07c1.708,0.501,3.4,0.429,5.024-0.357c0.465-0.225,0.907-0.502,1.427-0.792
	c0.021,0.162,0.038,0.243,0.042,0.327c0.039,0.763,0.135,0.859,0.908,0.859c0.913,0.001,1.825,0.004,2.74,0
	c0.53-0.004,0.718-0.173,0.717-0.689C45.787,37.09,45.806,33.216,45.706,29.349L45.706,29.349z M40.691,38.068
	c-0.995,0.386-2,0.594-3.066,0.409c-0.665-0.113-1.15-0.508-1.208-1.182c-0.05-0.62-0.014-1.245,0.106-1.854
	c0.13-0.644,0.602-1.113,1.247-1.194c1.051-0.131,2.114-0.159,3.172-0.196c0.094-0.003,0.274,0.225,0.283,0.356
	c0.034,0.522,0.014,1.048,0.014,1.571c0,0.408-0.033,0.816,0.009,1.22C41.301,37.668,41.118,37.906,40.691,38.068L40.691,38.068z
	 M91.559,23.086v0.132h0.372v1.089h0.161v-1.089h0.372v-0.132H91.559z M93.744,23.086h-0.212l-0.218,0.59
	c-0.052,0.155-0.098,0.288-0.128,0.413h-0.002c-0.037-0.128-0.074-0.263-0.124-0.413l-0.208-0.59h-0.2l-0.083,1.221h0.148
	l0.035-0.526c0.011-0.18,0.02-0.36,0.023-0.54h0.004c0.037,0.144,0.083,0.302,0.14,0.474l0.199,0.584h0.119l0.215-0.594
	c0.062-0.169,0.109-0.321,0.152-0.463h0.004c0,0.149,0.01,0.358,0.023,0.527l0.027,0.538h0.16L93.744,23.086L93.744,23.086z
	 M74.734,30.503c-0.012-0.93-0.118-1.856-0.319-2.764c-0.399-1.873-1.474-3.192-3.445-3.536c-2.153-0.382-4.206-0.076-6.054,1.177
	c-0.182,0.121-0.362,0.23-0.673,0.427c-0.015-0.364-0.036-0.589-0.039-0.818c-0.015-0.597-0.117-0.708-0.718-0.712
	c-0.953-0.005-1.897-0.007-2.844,0.002c-0.558,0.003-0.724,0.177-0.724,0.733v15.832c0,0.62,0.166,0.79,0.773,0.794
	c1.049,0.004,2.099-0.011,3.147,0.009c0.469,0.005,0.68-0.179,0.671-0.659c-0.018-1.049-0.006-2.097-0.006-3.146
	c0-2.791-0.005-5.582,0.011-8.373c0-0.231,0.061-0.577,0.215-0.673c1.165-0.717,2.415-1.158,3.805-0.927
	c0.765,0.126,1.302,0.575,1.445,1.365c0.102,0.546,0.178,1.103,0.178,1.656c0.021,3.318,0.011,6.633,0.011,9.949
	c0,0.722,0.084,0.803,0.823,0.803c0.948,0.005,1.897,0.005,2.844,0c0.819,0,0.913-0.092,0.913-0.892
	C74.749,37.338,74.771,33.923,74.734,30.503L74.734,30.503z M90.891,30.307c0.004-0.526-0.032-1.051-0.105-1.57
	c-0.316-2.023-1.401-3.469-3.366-4.124c-0.83-0.282-1.692-0.457-2.567-0.52c-2.065-0.13-4.107,0.117-6.13,0.573
	c-0.443,0.104-0.63,0.344-0.628,0.777v1.674c0,0.898,0.123,0.967,0.997,0.922c1.74-0.098,3.479-0.176,5.216-0.187
	c1.122-0.004,1.751,0.573,1.94,1.683c0.085,0.498,0.039,1.015,0.065,1.517c0.018,0.334-0.141,0.443-0.46,0.433
	c-0.727-0.01-1.465-0.073-2.182,0.015c-1.233,0.146-2.485,0.287-3.678,0.622c-1.582,0.445-2.608,1.551-2.867,3.216
	c-0.104,0.69-0.087,1.408-0.054,2.111c0.135,2.854,2.313,4.729,5.163,4.498c1.439-0.112,2.795-0.454,3.975-1.333
	c0.079-0.058,0.181-0.089,0.291-0.139c0.052,0.078,0.083,0.098,0.086,0.13c0.019,0.084,0.028,0.169,0.03,0.255
	c0.04,0.737,0.088,0.782,0.845,0.782c0.88,0.005,1.757,0.005,2.637,0c0.709,0,0.797-0.081,0.797-0.778
	C90.896,37.345,90.9,33.824,90.891,30.307z M86.42,37.361c0.012,0.322-0.127,0.493-0.409,0.619c-1.038,0.46-2.104,0.696-3.247,0.51
	c-0.821-0.141-1.303-0.698-1.289-1.731c0.027-1.756,0.415-2.549,2.55-2.71c0.638-0.051,1.285,0.001,1.927-0.013
	c0.36-0.017,0.475,0.152,0.469,0.486c-0.017,0.49-0.008,0.984-0.008,1.469C86.416,36.447,86.398,36.901,86.42,37.361z M58.006,24.7
	c0.002-0.453-0.2-0.646-0.649-0.629c-1.292,0.047-2.539,0.481-3.582,1.245c-0.146,0.106-0.292,0.204-0.51,0.36
	c-0.018-0.244-0.037-0.387-0.037-0.533c-0.014-0.728-0.142-0.863-0.854-0.863c-0.917-0.003-1.826-0.001-2.74-0.001
	c-0.836,0.001-0.975,0.137-0.975,0.969v15.476c0,0.75,0.165,0.917,0.876,0.917c0.962,0.005,1.93,0.005,2.893,0
	c0.778,0,0.902-0.117,0.902-0.92c0.002-3.751,0.006-7.508-0.007-11.268c0-0.371,0.108-0.582,0.449-0.744
	c1.129-0.531,2.286-0.929,3.557-0.876c0.464,0.019,0.69-0.156,0.679-0.648C57.99,26.357,57.989,25.528,58.006,24.7L58.006,24.7z"/>
</svg>
