<?xml version="1.0" encoding="utf-8"?>
<!-- Generator: Adobe Illustrator 16.0.0, SVG Export Plug-In . SVG Version: 6.00 Build 0)  -->
<!DOCTYPE svg PUBLIC "-//W3C//DTD SVG 1.1//EN" "http://www.w3.org/Graphics/SVG/1.1/DTD/svg11.dtd">
<svg version="1.1" id="Layer_1" xmlns="http://www.w3.org/2000/svg" xmlns:xlink="http://www.w3.org/1999/xlink" x="0px" y="0px"
	 width="57px" height="32px" viewBox="0 0 57 32" enable-background="new 0 0 57 32" xml:space="preserve">
<g>
	<path d="M27,15.749v6.448h-2.046V6.271h5.428c1.307-0.027,2.572,0.469,3.514,1.378
		c0.951,0.857,1.486,2.082,1.467,3.362c0.027,1.287-0.51,2.521-1.467,3.379c-0.949,0.905-2.121,1.356-3.514,1.356H27V15.749z
		 M27,8.232v5.559h3.43c0.764,0.023,1.496-0.276,2.025-0.823c1.074-1.045,1.1-2.763,0.055-3.838
		c-0.018-0.018-0.035-0.036-0.055-0.054c-0.521-0.559-1.26-0.867-2.025-0.846H27V8.232z"/>
	<path d="M40.079,10.944c1.51,0,2.703,0.404,3.578,1.213s1.313,1.916,1.313,3.324v6.716h-1.957v-1.512h-0.09
		c-0.846,1.245-1.971,1.868-3.381,1.868c-1.199,0-2.203-0.356-3.012-1.068c-0.787-0.661-1.23-1.642-1.213-2.669
		c0-1.127,0.426-2.023,1.277-2.69c0.854-0.666,1.992-0.999,3.414-1.001c1.215,0,2.217,0.223,3.002,0.667v-0.467
		c0.004-0.7-0.305-1.365-0.844-1.811c-0.541-0.488-1.248-0.755-1.975-0.746c-1.145,0-2.049,0.482-2.715,1.445l-1.803-1.134
		C36.665,11.657,38.134,10.944,40.079,10.944z M37.431,18.861c-0.002,0.528,0.25,1.026,0.678,1.334
		c0.453,0.356,1.014,0.546,1.59,0.534c0.863-0.001,1.689-0.345,2.301-0.955c0.678-0.638,1.016-1.386,1.016-2.245
		c-0.637-0.51-1.525-0.764-2.668-0.764c-0.828,0-1.523,0.201-2.076,0.602C37.708,17.773,37.431,18.268,37.431,18.861L37.431,18.861z
		"/>
	<path d="M56.202,11.3L49.372,27h-2.113l2.535-5.493L45.302,11.3h2.223l3.25,7.828h0.043l3.158-7.828H56.202z"/>
	<path d="M18.732,14.358c0.001-0.624-0.052-1.247-0.157-1.861H9.947v3.525h4.942
		c-0.204,1.137-0.865,2.141-1.827,2.778v2.288h2.949C17.737,19.497,18.732,17.142,18.732,14.358z"/>
	<path d="M9.947,23.298c2.469,0,4.547-0.809,6.064-2.208l-2.949-2.286c-0.821,0.556-1.878,0.874-3.115,0.874
		c-2.386,0-4.413-1.609-5.137-3.775H1.772v2.355C3.325,21.348,6.488,23.298,9.947,23.298z"/>
	<path d="M4.81,15.902c-0.382-1.138-0.382-2.368,0-3.504v-2.357H1.772c-1.299,2.584-1.299,5.633,0,8.217L4.81,15.902
		z"/>
	<path d="M9.947,8.622c1.304-0.021,2.565,0.472,3.51,1.373l0,0l2.611-2.611C14.412,5.828,12.218,4.974,9.947,5
		c-3.458,0-6.622,1.951-8.175,5.041l3.038,2.357C5.534,10.23,7.561,8.622,9.947,8.622z"/>
</g>
</svg>
