<?xml version="1.0" encoding="utf-8"?>
<!-- Generator: Adobe Illustrator 16.0.0, SVG Export Plug-In . SVG Version: 6.00 Build 0)  -->
<!DOCTYPE svg PUBLIC "-//W3C//DTD SVG 1.1//EN" "http://www.w3.org/Graphics/SVG/1.1/DTD/svg11.dtd">
<svg version="1.1" id="Layer_1" xmlns="http://www.w3.org/2000/svg" xmlns:xlink="http://www.w3.org/1999/xlink" x="0px" y="0px"
	 width="100px" height="60px" viewBox="0 0 100 60" enable-background="new 0 0 100 60" xml:space="preserve">
<g id="Icons:-Payment">
	<g id="Payment_x2F_PayPal_x2F_Paypal-card-dark">
		<path id="Rectangle-Copy" fill="#231F20" d="M4,0h92c2.209,0,4,1.791,4,4v52c0,2.209-1.791,4-4,4H4c-2.209,0-4-1.791-4-4V4
			C0,1.791,1.791,0,4,0z"/>
		<g>
			<path fill="#FFFFFF" d="M47.614,29.6v10.26h-3.255V14.522h8.634c2.08-0.043,4.092,0.747,5.589,2.193
				c1.514,1.363,2.365,3.312,2.334,5.348c0.043,2.047-0.81,4.011-2.334,5.377c-1.511,1.44-3.373,2.158-5.589,2.157h-5.379V29.6z
				 M47.614,17.643v8.844h5.458c1.211,0.036,2.379-0.439,3.22-1.311c1.71-1.662,1.75-4.396,0.087-6.105
				c-0.027-0.03-0.056-0.057-0.087-0.086c-0.83-0.889-2.003-1.378-3.22-1.345h-5.458V17.643z"/>
			<path fill="#FFFFFF" d="M68.419,21.958c2.404,0,4.303,0.643,5.694,1.929c1.392,1.285,2.088,3.048,2.088,5.289V39.86h-3.113
				v-2.406h-0.144c-1.347,1.98-3.138,2.972-5.377,2.972c-1.91,0-3.507-0.565-4.794-1.699c-1.249-1.051-1.956-2.612-1.929-4.245
				c0-1.794,0.68-3.22,2.034-4.28c1.356-1.059,3.168-1.589,5.431-1.592c1.933,0,3.525,0.353,4.775,1.061v-0.743
				c0.008-1.113-0.485-2.172-1.344-2.881c-0.861-0.777-1.984-1.201-3.142-1.187c-1.82,0-3.259,0.767-4.316,2.3l-2.868-1.805
				C62.991,23.09,65.325,21.958,68.419,21.958z M64.206,34.552c-0.005,0.841,0.398,1.632,1.078,2.123
				c0.722,0.567,1.615,0.866,2.53,0.849c1.373-0.001,2.689-0.548,3.66-1.519c1.078-1.016,1.618-2.207,1.618-3.573
				c-1.016-0.809-2.432-1.213-4.246-1.213c-1.32,0-2.424,0.318-3.306,0.957C64.648,32.821,64.206,33.609,64.206,34.552
				L64.206,34.552z"/>
			<path fill="#FFFFFF" d="M94.071,22.523L83.204,47.5h-3.362l4.033-8.739l-7.146-16.237h3.538l5.165,12.454h0.071l5.022-12.454
				H94.071z"/>
			<path fill="#4285F4" d="M34.461,27.388c0.002-0.992-0.083-1.982-0.25-2.96H20.484v5.606h7.861
				c-0.325,1.809-1.375,3.407-2.907,4.422v3.64h4.692C32.878,35.563,34.461,31.816,34.461,27.388z"/>
			<path fill="#34A853" d="M20.484,41.61c3.927,0,7.234-1.288,9.647-3.513l-4.692-3.638c-1.306,0.885-2.988,1.391-4.955,1.391
				c-3.797,0-7.02-2.56-8.172-6.008H7.479v3.749C9.95,38.508,14.982,41.61,20.484,41.61z"/>
			<path fill="#FBBC04" d="M12.313,29.843c-0.608-1.808-0.608-3.765,0-5.572v-3.75H7.479c-2.066,4.112-2.066,8.959,0,13.071
				L12.313,29.843z"/>
			<path fill="#EA4335" d="M20.484,18.263c2.075-0.034,4.081,0.75,5.583,2.183l0,0l4.154-4.154
				c-2.634-2.474-6.125-3.833-9.738-3.791c-5.502,0-10.535,3.104-13.006,8.02l4.834,3.75C13.464,20.821,16.688,18.263,20.484,18.263
				z"/>
		</g>
	</g>
</g>
</svg>
