<?xml version="1.0" encoding="utf-8"?>
<!-- Generator: Adobe Illustrator 25.4.1, SVG Export Plug-In . SVG Version: 6.00 Build 0)  -->
<svg version="1.1" xmlns="http://www.w3.org/2000/svg" xmlns:xlink="http://www.w3.org/1999/xlink" x="0px" y="0px"
	 viewBox="0 0 50 50" style="enable-background:new 0 0 50 50;" xml:space="preserve">
<path d="M16.7,10h16.6c0.4,0,0.7-0.4,0.7-1s-0.3-1-0.7-1H16.7C16.3,8,16,8.4,16,9S16.3,10,16.7,10z"/>
<path d="M16.7,20h16.6c0.4,0,0.7-0.4,0.7-1s-0.3-1-0.7-1H16.7c-0.4,0-0.7,0.4-0.7,1S16.3,20,16.7,20z"/>
<path d="M24.6,40h-8.2c-0.2,0-0.4,0.4-0.4,1s0.2,1,0.4,1h8.2c0.2,0,0.4-0.4,0.4-1S24.8,40,24.6,40z"/>
<path d="M11,6H7C6.4,6,6,6.4,6,7c0,0,0,0,0,0v4c0,0.6,0.4,1,1,1c0,0,0,0,0,0h4c0.6,0,1-0.4,1-1c0,0,0,0,0,0V7C12,6.4,11.6,6,11,6
	C11,6,11,6,11,6z"/>
<path d="M11,16H7c-0.6,0-1,0.4-1,1c0,0,0,0,0,0v4c0,0.6,0.4,1,1,1c0,0,0,0,0,0h4c0.6,0,1-0.4,1-1c0,0,0,0,0,0v-4
	C12,16.4,11.6,16,11,16C11,16,11,16,11,16z"/>
<path d="M11,38H7c-0.6,0-1,0.4-1,1c0,0,0,0,0,0v4c0,0.6,0.4,1,1,1c0,0,0,0,0,0h4c0.6,0,1-0.4,1-1c0,0,0,0,0,0v-4
	C12,38.4,11.6,38,11,38C11,38,11,38,11,38z"/>
<path d="M50,37c0-5.7-4.3-10.4-10-10.9V1c0-0.6-0.4-1-1-1c0,0,0,0,0,0H1C0.4,0,0,0.4,0,1c0,0,0,0,0,0v48c0,0.6,0.4,1,1,1
	c0,0,0,0,0,0h38c0.6,0,1-0.4,1-1c0,0,0,0,0,0v-1.1C45.7,47.4,50,42.7,50,37z M2,48V2h36v24.1c-6,0.5-10.5,5.9-10,11.9
	c0.5,5.3,4.7,9.5,10,10V48H2z M30,37c0-5,4-9,9-9s9,4,9,9s-4,9-9,9C34,46,30,42,30,37z"/>
<path d="M40,38c0.6,0,1-0.4,1-1s-0.4-1-1-1h-3v-3c0-0.6-0.4-1-1-1s-1,0.4-1,1v4c0,0.6,0.4,1,1,1c0,0,0,0,0,0H40z"/>
</svg>
