<?xml version="1.0" encoding="utf-8"?>
<svg viewBox="0 0 1000 1000" xmlns="http://www.w3.org/2000/svg">
  <path d="M 500 550 C 651.65 550 775 426.65 775 275 C 775 123.35 651.65 0 500 0 C 348.35 0 225 123.35 225 275 C 225 426.65 348.35 550 500 550 Z M 500 50 C 624.05 50 725 150.95 725 275 C 725 399.05 624.05 500 500 500 C 375.95 500 275 399.05 275 275 C 275 150.95 375.95 50 500 50 Z M 100 1000 L 900 1000 C 941.35 1000 975 966.35 975 925 C 975 921.6 974.3 840.75 913.75 760 C 878.5 713 830.25 675.65 770.3 649.05 C 697.1 616.5 606.149 600 500 600 C 393.851 600 302.9 616.5 229.7 649.05 C 169.75 675.7 121.5 713 86.25 760 C 25.7 840.75 25 921.6 25 925 C 25 966.35 58.65 1000 100 1000 Z M 500 650 C 674.35 650 803 697.65 872.05 787.8 C 923.8 855.35 924.95 924.399 925 925.1 C 925 938.8 913.8 950 900 950 L 100 950 C 86.2 950 75 938.8 75 925 C 75 924.4 76.15 855.35 127.95 787.8 C 197.05 697.649 325.7 650 500 650 Z"/>
</svg>